<svg xmlns="http://www.w3.org/2000/svg" xmlns:xlink="http://www.w3.org/1999/xlink" width="48" height="48" viewBox="0 0 48 48">
    <defs>
        <linearGradient id="a" x1="21.84%" x2="97.922%" y1="15.644%" y2="153.394%">
            <stop offset="0%" stop-color="#FF8C00"/>
            <stop offset="59.573%" stop-color="#F22E83"/>
            <stop offset="99.923%" stop-color="#002EC7"/>
        </linearGradient>
        <path id="b" d="M.372 4.905v.05c-.008 2.502 1.776 4.568 4.4 4.576 2.65.008 4.447-2.07 4.456-4.573V4.91C9.236 2.383 7.5.317 4.827.308H4.81C2.147.308.38 2.385.372 4.906zm4.434 1.952c-.81-.002-1.445-.838-1.441-1.918v-.048c.003-1.104.57-1.912 1.428-1.909.835.002 1.445.838 1.442 1.942v.049C6.23 6.051 5.64 6.858 4.81 6.858h-.004zm-2.254 9.257l1.728 1.74 14.805-14.71-1.729-1.74-14.804 14.71zm10.251-1.774v.05c-.009 2.501 1.751 4.591 4.401 4.6 2.648.009 4.446-2.095 4.454-4.597v-.049c.008-2.526-1.727-4.593-4.4-4.602h-.017c-2.689 0-4.43 2.077-4.438 4.598zm4.433 1.952c-.809-.003-1.445-.839-1.44-1.918v-.049c.003-1.104.546-1.911 1.428-1.909.835.003 1.445.839 1.442 1.942v.05c-.003 1.077-.593 1.884-1.425 1.884h-.005z"/>
        <linearGradient id="d" x1="20.654%" x2="83.35%" y1="23.535%" y2="124.797%">
            <stop offset="0%" stop-color="#FF8C00"/>
            <stop offset="59.573%" stop-color="#F22E83"/>
            <stop offset="99.923%" stop-color="#002EC7"/>
        </linearGradient>
    </defs>
    <g fill="none" fill-rule="evenodd">
        <path fill="url(#a)" d="M2.5 21v24.5h24z"/>
        <g transform="translate(14.5 15)">
            <mask id="c" fill="#fff">
                <use xlink:href="#b"/>
            </mask>
            <path d="M.372 4.905v.05c-.008 2.502 1.776 4.568 4.4 4.576 2.65.008 4.447-2.07 4.456-4.573V4.91C9.236 2.383 7.5.317 4.827.308H4.81C2.147.308.38 2.385.372 4.906zm4.434 1.952c-.81-.002-1.445-.838-1.441-1.918v-.048c.003-1.104.57-1.912 1.428-1.909.835.002 1.445.838 1.442 1.942v.049C6.23 6.051 5.64 6.858 4.81 6.858h-.004zm-2.254 9.257l1.728 1.74 14.805-14.71-1.729-1.74-14.804 14.71zm10.251-1.774v.05c-.009 2.501 1.751 4.591 4.401 4.6 2.648.009 4.446-2.095 4.454-4.597v-.049c.008-2.526-1.727-4.593-4.4-4.602h-.017c-2.689 0-4.43 2.077-4.438 4.598zm4.433 1.952c-.809-.003-1.445-.839-1.44-1.918v-.049c.003-1.104.546-1.911 1.428-1.909.835.003 1.445.839 1.442 1.942v.05c-.003 1.077-.593 1.884-1.425 1.884h-.005z" mask="url(#c)"/>
        </g>
        <path fill="url(#d)" d="M31.725 27.416c-.883-.003-1.426.805-1.43 1.91v.048c-.003 1.08.632 1.915 1.442 1.918.834.003 1.425-.805 1.429-1.884v-.05c.003-1.103-.607-1.94-1.441-1.942zm-10.99-7.443v-.049c.003-1.103-.607-1.94-1.441-1.942-.859-.003-1.426.805-1.43 1.908v.05c-.003 1.079.632 1.915 1.442 1.918.834.002 1.425-.805 1.428-1.885zM31.703 33.99c-2.65-.008-4.41-2.1-4.401-4.6v-.05c.008-2.526 1.756-4.606 4.455-4.598 2.673.01 4.408 2.075 4.4 4.602v.049c-.008 2.502-1.805 4.606-4.454 4.597zM18.78 32.854l-1.728-1.74 14.804-14.71 1.729 1.74-14.805 14.71zm-3.908-12.9v-.049c.009-2.526 1.781-4.605 4.455-4.597 2.674.009 4.409 2.075 4.4 4.601v.05c-.007 2.501-1.805 4.58-4.454 4.572-2.625-.008-4.409-2.074-4.4-4.577z"/>
        <path stroke="#000" d="M22.1 3.063L3 3.002v18.205l23.626 23.586 18.666-18.694L22.1 3.063z"/>
        <path stroke="#000" stroke-linecap="round" d="M9.308 12.766a2.786 2.786 0 1 1 .018-5.573 2.786 2.786 0 0 1-.018 5.573z"/>
    </g>
</svg>
