<svg xmlns="http://www.w3.org/2000/svg" width="48" height="48" viewBox="0 0 48 48">
    <defs>
        <linearGradient id="a" x1="20.654%" x2="124.467%" y1="34.149%" y2="79.259%">
            <stop offset="0%" stop-color="#FF8C00"/>
            <stop offset="59.573%" stop-color="#F22E83"/>
            <stop offset="99.923%" stop-color="#002EC7"/>
        </linearGradient>
    </defs>
    <g fill="none" fill-rule="evenodd">
        <path fill="url(#a)" d="M19.795 21.5v-6.033c0-1.455 1.172-2.645 2.604-2.645 1.433 0 2.605 1.19 2.605 2.645v5.696c3.733-1.06 6.496-4.546 6.496-8.663 0-4.95-3.988-9-8.863-9h-8.774C8.988 3.5 5 7.55 5 12.5s3.988 9 8.863 9h5.932z"/>
        <path fill="#000" d="M34.354 22h-9.627a.25.25 0 0 1-.25-.252.25.25 0 0 1 .25-.252h9.627c4.768 0 8.648-3.919 8.648-8.736 0-4.837-3.88-8.756-8.648-8.756H19.146c-4.769 0-8.648 3.919-8.648 8.736 0 4.837 3.88 8.756 8.648 8.756a.25.25 0 0 1 .249.252.25.25 0 0 1-.25.252C14.104 22 10 17.855 10 12.76c0-5.115 4.103-9.26 9.146-9.26h15.208c5.043 0 9.146 4.145 9.146 9.24 0 5.115-4.103 9.26-9.146 9.26"/>
        <path fill="#000" d="M40.749 45.5a.251.251 0 0 1-.252-.252V30.723a2.391 2.391 0 0 0-2.387-2.389 2.391 2.391 0 0 0-2.387 2.39h-.502a2.391 2.391 0 0 0-2.388-2.39 2.391 2.391 0 0 0-2.387 2.39h-.502a2.391 2.391 0 0 0-2.387-2.39 2.391 2.391 0 0 0-2.388 2.39h-.502V15.391a2.391 2.391 0 0 0-2.387-2.389 2.391 2.391 0 0 0-2.388 2.39V40.8l-5.818-5.823a2.388 2.388 0 0 0-3.375 0 2.373 2.373 0 0 0-.696 1.69c0 .64.247 1.24.696 1.689l6.595 6.601a.252.252 0 0 1-.356.356l-6.595-6.601a2.873 2.873 0 0 1-.843-2.046c0-.774.3-1.5.843-2.045a2.89 2.89 0 0 1 4.087 0l4.96 4.965V15.392a2.894 2.894 0 0 1 2.89-2.892 2.894 2.894 0 0 1 2.89 2.892v13.703a2.888 2.888 0 0 1 5.025.449 2.894 2.894 0 0 1 2.638-1.713c1.174 0 2.187.704 2.639 1.713a2.894 2.894 0 0 1 2.638-1.713A2.894 2.894 0 0 1 41 30.723v14.525a.251.251 0 0 1-.251.252"/>
        <path fill="#000" d="M24.873 34.463a.25.25 0 0 1-.25-.25v-3.929a.25.25 0 1 1 .5 0v3.929a.25.25 0 0 1-.25.25M30.123 34.463a.25.25 0 0 1-.25-.25v-3.929a.25.25 0 1 1 .5 0v3.929a.25.25 0 0 1-.25.25M35.373 34.463a.25.25 0 0 1-.25-.25v-3.929a.25.25 0 1 1 .5 0v3.929a.25.25 0 0 1-.25.25"/>
    </g>
</svg>
