<svg xmlns="http://www.w3.org/2000/svg" width="72" height="72" viewBox="0 0 72 72">
    <defs>
        <linearGradient id="a" x1="46.977%" x2="58.801%" y1="51.666%" y2="30.474%">
            <stop offset="0%" stop-color="#9775F8"/>
            <stop offset="95.161%" stop-color="#22D88F"/>
        </linearGradient>
        <linearGradient id="b" x1="35.259%" x2="50.419%" y1="24.64%" y2="80.427%">
            <stop offset="0%" stop-color="#9775F8"/>
            <stop offset="21.423%" stop-color="#689CCE"/>
            <stop offset="42.298%" stop-color="#42BDAC"/>
            <stop offset="58.968%" stop-color="#2BD197"/>
            <stop offset="69.355%" stop-color="#22D88F"/>
        </linearGradient>
        <linearGradient id="c" x1="9.267%" x2="125.439%" y1="26.865%" y2="72.651%">
            <stop offset="7.527%" stop-color="#22D88F"/>
            <stop offset="72.043%" stop-color="#9775F8"/>
        </linearGradient>
        <linearGradient id="d" x1="0%" x2="94.064%" y1="50%" y2="50%">
            <stop offset="7.527%" stop-color="#22D88F"/>
            <stop offset="26.582%" stop-color="#5AB0B4"/>
            <stop offset="56.452%" stop-color="#B86CF2"/>
            <stop offset="100%" stop-color="#FF59E6"/>
        </linearGradient>
    </defs>
    <g fill="none" fill-rule="nonzero">
        <path fill="#9775F8" d="M64.49 10.709l4.392 28.193-16.696 9.718-3.22-15.986z"/>
        <path fill="url(#a)" d="M64.49 10.709L39.827 0 19.114 17.192l29.851 15.442z"/>
        <path fill="url(#b)" d="M46.547 68.882L17.76 30.074 9.127 35.84.597 61.506z"/>
        <path fill="url(#c)" d="M51.957 49.325L31.784 36.05 0 31.795l46.547 37.087z"/>
        <path fill="url(#d)" d="M0 .487v31.308l59.78 20.54 4.71-41.627z"/>
        <path fill="#000" d="M13.186 13.181h42.52v42.52h-42.52z"/>
        <path fill="#FFF" d="M17.487 18.694h6.867c5.534 0 9.357 3.798 9.357 8.754v.05c0 4.955-3.823 8.803-9.357 8.803h-6.867V18.694zm3.874 3.496v10.615h2.993a5.017 5.017 0 0 0 5.308-5.257v-.05a5.057 5.057 0 0 0-5.308-5.308h-2.993zM34.397 27.548v-.05a9.037 9.037 0 0 1 9.231-9.106 9.667 9.667 0 0 1 6.918 2.415l-2.44 2.943a6.484 6.484 0 0 0-4.603-1.786c-2.818 0-5.056 2.49-5.056 5.484v.05c0 3.22 2.213 5.584 5.332 5.584a6.181 6.181 0 0 0 3.648-1.057V29.51h-3.9v-3.345h7.648v7.646a11.429 11.429 0 0 1-7.521 2.792c-5.484 0-9.257-3.848-9.257-9.055zM17.096 47.72h15.945v2.658H17.096z"/>
    </g>
</svg>
