<svg xmlns="http://www.w3.org/2000/svg" width="72" height="72" viewBox="0 0 72 72">
    <defs>
        <linearGradient id="a" x1="94.366%" x2="-32.62%" y1="76.845%" y2=".526%">
            <stop offset="0%" stop-color="#F9B517"/>
            <stop offset="100%" stop-color="#C80F5E"/>
        </linearGradient>
        <linearGradient id="b" x1="55.38%" x2="30.355%" y1="96.32%" y2="16.499%">
            <stop offset="0%" stop-color="#3A70B6"/>
            <stop offset="48.333%" stop-color="#C80F5E"/>
            <stop offset="100%" stop-color="#3A70B6"/>
        </linearGradient>
        <linearGradient id="c" x1="2103.169%" x2="1000.385%" y1="3881.777%" y2="965.067%">
            <stop offset="0%" stop-color="#F9B517"/>
            <stop offset="100%" stop-color="#C80F5E"/>
        </linearGradient>
    </defs>
    <g fill="none" fill-rule="nonzero">
        <path fill="url(#a)" d="M68.878 27.45L56.066 51.595l-41.476-34.4L20.62.668z" transform="translate(.75 2.25)"/>
        <path fill="url(#b)" d="M29.878 15.498l13.7-13.742 25.3 55.925-20.246 11.82-22.01-10.828z" transform="translate(.75 2.25)"/>
        <path fill="url(#c)" d="M.044 14.527L20.621.667 50.828 49.33l-23.4 20.061-19.735-7.588z" transform="translate(.75 2.25)"/>
        <path fill="#000" d="M15.665 14.626h42.49v42.49h-42.49z"/>
        <path fill="#FFF" d="M19.463 20.098h8.158c2.269 0 4.028.637 5.2 1.81a5.603 5.603 0 0 1 1.53 4.079v.052a5.545 5.545 0 0 1-3.824 5.532l4.36 6.372h-4.59l-3.823-5.71h-3.085v5.71h-3.926V20.098zm7.904 8.668c1.911 0 3.007-1.019 3.007-2.524v-.052c0-1.681-1.172-2.549-3.084-2.549h-3.9v5.125h3.977zM37.904 20.098h6.96c5.61 0 9.484 3.85 9.484 8.872v.052c0 5.02-3.875 8.921-9.483 8.921h-6.96V20.098zm3.927 3.543V34.4h3.033a5.085 5.085 0 0 0 5.379-5.329v-.05a5.126 5.126 0 0 0-5.379-5.38h-3.033zM19.56 49.149h15.933v2.655H19.559z"/>
    </g>
</svg>
