<svg xmlns="http://www.w3.org/2000/svg" width="72" height="72" viewBox="0 0 72 72">
    <defs>
        <linearGradient id="a" x1="45.405%" x2="64.844%" y1="16.767%" y2="89.726%">
            <stop offset="0%" stop-color="#00CDD7"/>
            <stop offset="100%" stop-color="#2086D7"/>
        </linearGradient>
        <linearGradient id="b" x1="35.329%" x2="53.649%" y1="19.183%" y2="54.01%">
            <stop offset="0%" stop-color="#FFF045"/>
            <stop offset="100%" stop-color="#00CDD7"/>
        </linearGradient>
        <linearGradient id="c" x1="3320.864%" x2="3537.729%" y1="853.362%" y2="1621.423%">
            <stop offset="28.495%" stop-color="#00CDD7"/>
            <stop offset="94.086%" stop-color="#2086D7"/>
        </linearGradient>
    </defs>
    <g fill="none" fill-rule="nonzero">
        <path fill="url(#a)" d="M9.283 62.252L0 7.22 17.173.09l10.962 6.52 10.042-5.423 20.931 8.038-11.741 59.657z" transform="translate(1.5 1.5)"/>
        <path fill="url(#b)" d="M68.882 23.326l-8.887-21.96L43.862 0 18.967 23.921l6.702 30.831 12.509 8.776 30.704-18.219-7.531-14.123z" transform="translate(1.5 1.5)"/>
        <path fill="url(#c)" d="M55.082 20.051l6.269 11.135 7.53-7.86L63.35 9.653z" transform="translate(1.5 1.5)"/>
        <path fill="#000" d="M14.686 14.681h42.52v42.52h-42.52z"/>
        <path fill="#FFF" d="M18.694 49.203h15.944v2.657H18.694zM39.597 35.264l2.257-2.755a7.884 7.884 0 0 0 5.179 2.149c1.564 0 2.505-.632 2.505-1.67v-.05c0-.986-.594-1.493-3.496-2.249-3.495-.91-5.753-1.899-5.753-5.41v-.054c0-3.208 2.53-5.336 6.075-5.336a9.917 9.917 0 0 1 6.446 2.253l-1.984 2.933a8.031 8.031 0 0 0-4.51-1.745c-1.463 0-2.233.682-2.233 1.542v.05c0 1.163.745 1.545 3.744 2.327 3.52.934 5.505 2.227 5.505 5.31v.05c0 3.515-2.628 5.485-6.373 5.485a10.922 10.922 0 0 1-7.362-2.83M36.148 20.179l-2.623 10.288L30.52 20.18h-2.987l-3.006 10.288-2.622-10.288h-4.11l5.036 17.642h3.31l2.886-10.207 2.85 10.207h3.349l5.032-17.642z"/>
    </g>
</svg>
